<?xml version="1.0" encoding="UTF-8" standalone="no"?>
<svg
   width="243"
   height="60"
   viewBox="0 0 243 60"
   fill="none"
   version="1.1"
   id="svg45"
   xmlns="http://www.w3.org/2000/svg"
   xmlns:svg="http://www.w3.org/2000/svg">
  <defs
     id="defs49" />
  <path
     d="m 33.407,22.6372 6.241,6.2529 c 0.299,0.3 0.705,0.4666 1.131,0.4666 h 9.886 c 0.958,0 1.697,-0.8399 1.583,-1.7932 -1.097,-9.1726 -8.362,-16.4454 -17.524,-17.552 -0.951,-0.11334 -1.789,0.6266 -1.789,1.5865 v 9.906 c 0.006,0.4266 0.173,0.8332 0.472,1.1332 z"
     fill="#35b729"
     id="path9" />
  <path
     d="m 24.958,28.8901 6.24,-6.2529 c 0.3,-0.3 0.466,-0.7066 0.466,-1.1332 v -9.906 c 0,-0.9599 -0.838,-1.69984 -1.79,-1.5865 -9.154,1.1066 -16.419,8.3794 -17.517,17.5587 -0.113,0.9532 0.626,1.7932 1.584,1.7932 h 9.886 c 0.426,-0.0067 0.832,-0.1733 1.131,-0.4733 z"
     fill="#ffbd4a"
     id="path11" />
  <path
     d="m 31.198,37.3561 -6.24,-6.2529 c -0.299,-0.2999 -0.705,-0.4666 -1.131,-0.4666 h -9.886 c -0.958,0 -1.697,0.8399 -1.584,1.7932 1.105,9.1793 8.363,16.4521 17.524,17.5587 0.951,0.1133 1.79,-0.6266 1.79,-1.5865 v -9.9126 c -0.007,-0.4267 -0.173,-0.8333 -0.473,-1.1333 z"
     fill="#5271ff"
     id="path13" />
  <path
     fill-rule="evenodd"
     clip-rule="evenodd"
     d="m 33.407,37.3561 6.241,-6.2529 c 0.299,-0.2999 0.705,-0.4666 1.131,-0.4666 h 9.886 c 0.901,0 1.607,0.7424 1.595,1.6233 0,0.0026 0,0.0052 0,0.0078 v 3.8507 0.0159 12.2346 c 0,0.902 -0.714,1.6281 -1.6,1.6281 H 38.526 c -0.036,0 -0.073,-0.0013 -0.109,-0.0037 h -3.861 c -10e-4,0 -0.003,0 -0.005,0 -0.874,0.007 -1.61,-0.699 -1.61,-1.598 v -9.906 c 0,-0.4266 0.167,-0.8332 0.466,-1.1332 z"
     fill="#ff5c5c"
     id="path15" />
  <path
     d="m 76.592,40.1176 c -1.263,0 -2.396,-0.312 -3.4,-0.936 -1.003,-0.6414 -1.799,-1.4995 -2.387,-2.5742 -0.571,-1.0921 -0.856,-2.3228 -0.856,-3.6923 0,-1.3694 0.311,-2.6002 0.934,-3.6923 0.64,-1.0921 1.496,-1.9501 2.569,-2.5742 1.09,-0.6414 2.31,-0.9621 3.659,-0.9621 1.349,0 2.56,0.3207 3.633,0.9621 1.073,0.6241 1.92,1.4821 2.543,2.5742 0.64,1.0921 0.96,2.3229 0.96,3.6923 h -1.012 c 0,1.3694 -0.294,2.6002 -0.882,3.6923 -0.571,1.0747 -1.358,1.9328 -2.361,2.5742 -1.004,0.624 -2.137,0.936 -3.4,0.936 z m 0.519,-2.3401 c 0.882,0 1.669,-0.208 2.362,-0.6241 0.692,-0.4333 1.236,-1.0141 1.634,-1.7421 0.398,-0.7454 0.597,-1.5774 0.597,-2.4962 0,-0.9361 -0.199,-1.7681 -0.597,-2.4962 -0.398,-0.7454 -0.942,-1.3261 -1.634,-1.7422 -0.693,-0.4334 -1.48,-0.65 -2.362,-0.65 -0.865,0 -1.652,0.2166 -2.362,0.65 -0.692,0.4161 -1.245,0.9968 -1.66,1.7422 -0.398,0.7281 -0.597,1.5601 -0.597,2.4962 0,0.9188 0.199,1.7508 0.597,2.4962 0.415,0.728 0.968,1.3088 1.66,1.7421 0.71,0.4161 1.497,0.6241 2.362,0.6241 z m 5.813,2.2622 c -0.381,0 -0.701,-0.1214 -0.96,-0.364 C 81.722,39.4156 81.6,39.0949 81.6,38.7135 v -3.9783 l 0.494,-2.7562 2.153,0.9361 v 5.7984 c 0,0.3814 -0.129,0.7021 -0.389,0.9622 -0.242,0.2426 -0.553,0.364 -0.934,0.364 z"
     fill="#ffffff"
     id="path17" />
  <path
     d="m 89.38,19.639 c 0.423,0 0.763,0.1477 1.019,0.4432 0.256,0.2862 0.38,0.6001 0.371,0.9417 V 38.86 c 0,0.3694 -0.141,0.6694 -0.424,0.9002 -0.274,0.2216 -0.547,0.3323 -0.821,0.3323 -0.379,0 -0.71,-0.1292 -0.993,-0.3877 -0.273,-0.2585 -0.41,-0.5908 -0.41,-0.997 V 21.0239 c 0,-0.3508 0.119,-0.6693 0.357,-0.9555 0.247,-0.2862 0.548,-0.4294 0.901,-0.4294 z"
     fill="#ffffff"
     id="path19" />
  <path
     d="m 101.6,40.1176 c -1.35,0 -2.561,-0.312 -3.633,-0.9361 -1.073,-0.6414 -1.921,-1.5081 -2.543,-2.6001 -0.623,-1.0921 -0.943,-2.3229 -0.961,-3.6924 V 21.0321 c 0,-0.3987 0.121,-0.7194 0.364,-0.9621 0.259,-0.2427 0.579,-0.364 0.96,-0.364 0.398,0 0.718,0.1213 0.96,0.364 0.242,0.2427 0.363,0.5634 0.363,0.9621 v 7.0205 c 0.606,-0.728 1.332,-1.3 2.18,-1.7161 0.865,-0.4333 1.808,-0.65 2.829,-0.65 1.263,0 2.396,0.3207 3.399,0.9621 1.004,0.624 1.791,1.4821 2.362,2.5742 0.588,1.0747 0.882,2.2968 0.882,3.6662 0,1.3695 -0.32,2.6003 -0.96,3.6924 -0.623,1.092 -1.471,1.9588 -2.543,2.6002 -1.073,0.624 -2.292,0.936 -3.659,0.936 z m 0,-2.3401 c 0.882,0 1.669,-0.2081 2.361,-0.6241 0.692,-0.4334 1.237,-1.0228 1.635,-1.7682 0.415,-0.7453 0.623,-1.5774 0.623,-2.4962 0,-0.936 -0.208,-1.7681 -0.623,-2.4961 -0.398,-0.7281 -0.943,-1.3002 -1.635,-1.7162 -0.692,-0.4334 -1.479,-0.65 -2.361,-0.65 -0.865,0 -1.652,0.2166 -2.362,0.65 -0.692,0.416 -1.237,0.9881 -1.635,1.7162 -0.398,0.728 -0.596,1.5601 -0.596,2.4961 0,0.9188 0.198,1.7509 0.596,2.4962 0.398,0.7454 0.943,1.3348 1.635,1.7682 0.71,0.416 1.497,0.6241 2.362,0.6241 z"
     fill="#ffffff"
     id="path21" />
  <path
     d="m 118.47,40.1176 c -1.401,0 -2.638,-0.3033 -3.711,-0.91 -1.073,-0.624 -1.92,-1.4735 -2.543,-2.5482 -0.606,-1.0921 -0.909,-2.3402 -0.909,-3.7443 0,-1.4214 0.303,-2.6696 0.909,-3.7444 0.623,-1.092 1.47,-1.9414 2.543,-2.5481 1.073,-0.6241 2.31,-0.9361 3.711,-0.9361 1.384,0 2.612,0.312 3.685,0.9361 1.073,0.6067 1.912,1.4561 2.517,2.5481 0.623,1.0748 0.934,2.323 0.934,3.7444 0,1.4041 -0.302,2.6522 -0.908,3.7443 -0.605,1.0748 -1.445,1.9242 -2.517,2.5482 -1.073,0.6067 -2.31,0.91 -3.711,0.91 z m 0,-2.3401 c 0.9,0 1.695,-0.208 2.387,-0.6241 0.692,-0.416 1.229,-0.988 1.609,-1.7161 0.398,-0.728 0.597,-1.5688 0.597,-2.5222 0,-0.9534 -0.199,-1.7941 -0.597,-2.5222 -0.38,-0.7454 -0.917,-1.3261 -1.609,-1.7422 -0.692,-0.416 -1.487,-0.624 -2.387,-0.624 -0.9,0 -1.696,0.208 -2.388,0.624 -0.692,0.4161 -1.237,0.9968 -1.634,1.7422 -0.398,0.7281 -0.597,1.5688 -0.597,2.5222 0,0.9534 0.199,1.7942 0.597,2.5222 0.397,0.7281 0.942,1.3001 1.634,1.7161 0.692,0.4161 1.488,0.6241 2.388,0.6241 z"
     fill="#ffffff"
     id="path23" />
  <path
     d="m 140.884,40.0397 c -0.38,0 -0.7,-0.1214 -0.96,-0.3641 -0.242,-0.26 -0.363,-0.5807 -0.363,-0.9621 V 32.317 c 0,-0.9881 -0.182,-1.7941 -0.545,-2.4181 -0.363,-0.6241 -0.856,-1.0835 -1.479,-1.3782 -0.606,-0.312 -1.306,-0.468 -2.102,-0.468 -0.727,0 -1.384,0.1473 -1.972,0.442 -0.589,0.2947 -1.056,0.6934 -1.402,1.1961 -0.346,0.4854 -0.519,1.0487 -0.519,1.6901 h -1.635 c 0,-1.0921 0.26,-2.0628 0.779,-2.9122 0.536,-0.8668 1.263,-1.5514 2.18,-2.0541 0.917,-0.5028 1.946,-0.7541 3.088,-0.7541 1.194,0 2.258,0.26 3.192,0.7801 0.951,0.5027 1.695,1.248 2.232,2.2361 0.553,0.9881 0.83,2.2015 0.83,3.6403 v 6.3965 c 0,0.3814 -0.13,0.7021 -0.389,0.9621 -0.243,0.2427 -0.554,0.3641 -0.935,0.3641 z m -10.665,0 c -0.381,0 -0.701,-0.1214 -0.96,-0.3641 -0.243,-0.26 -0.364,-0.5807 -0.364,-0.9621 V 27.1166 c 0,-0.3987 0.121,-0.7194 0.364,-0.9621 0.259,-0.2427 0.579,-0.364 0.96,-0.364 0.398,0 0.718,0.1213 0.96,0.364 0.242,0.2427 0.363,0.5634 0.363,0.9621 v 11.5969 c 0,0.3814 -0.121,0.7021 -0.363,0.9621 -0.242,0.2427 -0.562,0.3641 -0.96,0.3641 z"
     fill="#ffffff"
     id="path25" />
  <path
     d="m 151.073,40.0137 c -0.865,0 -1.644,-0.2168 -2.336,-0.6501 -0.692,-0.4508 -1.237,-1.0575 -1.635,-1.8202 -0.398,-0.7627 -0.597,-1.6207 -0.597,-2.5742 v -12.403 c 0,-0.3813 0.121,-0.6934 0.364,-0.9361 0.242,-0.2426 0.553,-0.364 0.934,-0.364 0.38,0 0.692,0.1214 0.934,0.364 0.242,0.2427 0.363,0.5548 0.363,0.9361 v 12.403 c 0,0.6934 0.191,1.2741 0.571,1.7422 0.381,0.468 0.848,0.702 1.402,0.702 h 0.882 c 0.311,0 0.571,0.1214 0.779,0.364 0.224,0.2427 0.337,0.5548 0.337,0.9361 0,0.3814 -0.147,0.6934 -0.441,0.9361 -0.277,0.2427 -0.64,0.3641 -1.09,0.3641 z m -5.761,-11.467 c -0.364,0 -0.658,-0.104 -0.883,-0.312 -0.225,-0.208 -0.337,-0.4681 -0.337,-0.7801 0,-0.3467 0.112,-0.6241 0.337,-0.8321 0.225,-0.208 0.519,-0.312 0.883,-0.312 h 5.994 c 0.364,0 0.658,0.104 0.883,0.312 0.224,0.208 0.337,0.4854 0.337,0.8321 0,0.312 -0.113,0.5721 -0.337,0.7801 -0.225,0.208 -0.519,0.312 -0.883,0.312 z"
     fill="#ffffff"
     id="path27" />
  <path
     d="m 161.54,40.1176 c -1.263,0 -2.396,-0.312 -3.4,-0.936 -1.003,-0.6414 -1.799,-1.4995 -2.387,-2.5742 -0.571,-1.0921 -0.857,-2.3228 -0.857,-3.6923 0,-1.3694 0.312,-2.6002 0.935,-3.6923 0.64,-1.0921 1.496,-1.9501 2.569,-2.5742 1.09,-0.6414 2.309,-0.9621 3.659,-0.9621 1.349,0 2.56,0.3207 3.633,0.9621 1.073,0.6241 1.92,1.4821 2.543,2.5742 0.64,1.0921 0.96,2.3229 0.96,3.6923 h -1.012 c 0,1.3694 -0.294,2.6002 -0.882,3.6923 -0.571,1.0747 -1.358,1.9328 -2.362,2.5742 -1.003,0.624 -2.136,0.936 -3.399,0.936 z m 0.519,-2.3401 c 0.882,0 1.669,-0.208 2.361,-0.6241 0.692,-0.4333 1.237,-1.0141 1.635,-1.7421 0.398,-0.7454 0.597,-1.5774 0.597,-2.4962 0,-0.9361 -0.199,-1.7681 -0.597,-2.4962 -0.398,-0.7454 -0.943,-1.3261 -1.635,-1.7422 -0.692,-0.4334 -1.479,-0.65 -2.361,-0.65 -0.865,0 -1.652,0.2166 -2.362,0.65 -0.692,0.4161 -1.245,0.9968 -1.66,1.7422 -0.398,0.7281 -0.597,1.5601 -0.597,2.4962 0,0.9188 0.199,1.7508 0.597,2.4962 0.415,0.728 0.968,1.3088 1.66,1.7421 0.71,0.4161 1.497,0.6241 2.362,0.6241 z m 5.813,2.2622 c -0.381,0 -0.701,-0.1214 -0.96,-0.364 -0.243,-0.2601 -0.364,-0.5808 -0.364,-0.9622 v -3.9783 l 0.493,-2.7562 2.154,0.9361 v 5.7984 c 0,0.3814 -0.129,0.7021 -0.389,0.9622 -0.242,0.2426 -0.554,0.364 -0.934,0.364 z"
     fill="#ffffff"
     id="path29" />
  <path
     d="m 184.473,40.0397 c -0.38,0 -0.7,-0.1214 -0.96,-0.3641 -0.242,-0.26 -0.363,-0.5807 -0.363,-0.9621 V 32.317 c 0,-0.9881 -0.182,-1.7941 -0.545,-2.4181 -0.363,-0.6241 -0.856,-1.0835 -1.479,-1.3782 -0.606,-0.312 -1.306,-0.468 -2.102,-0.468 -0.727,0 -1.384,0.1473 -1.972,0.442 -0.589,0.2947 -1.056,0.6934 -1.402,1.1961 -0.346,0.4854 -0.519,1.0487 -0.519,1.6901 h -1.635 c 0,-1.0921 0.26,-2.0628 0.779,-2.9122 0.536,-0.8668 1.263,-1.5514 2.18,-2.0541 0.917,-0.5028 1.946,-0.7541 3.088,-0.7541 1.194,0 2.258,0.26 3.192,0.7801 0.951,0.5027 1.695,1.248 2.231,2.2361 0.554,0.9881 0.831,2.2015 0.831,3.6403 v 6.3965 c 0,0.3814 -0.13,0.7021 -0.389,0.9621 -0.243,0.2427 -0.554,0.3641 -0.935,0.3641 z m -10.665,0 c -0.381,0 -0.701,-0.1214 -0.96,-0.3641 -0.243,-0.26 -0.364,-0.5807 -0.364,-0.9621 V 27.1166 c 0,-0.3987 0.121,-0.7194 0.364,-0.9621 0.259,-0.2427 0.579,-0.364 0.96,-0.364 0.398,0 0.718,0.1213 0.96,0.364 0.242,0.2427 0.363,0.5634 0.363,0.9621 v 11.5969 c 0,0.3814 -0.121,0.7021 -0.363,0.9621 -0.242,0.2427 -0.562,0.3641 -0.96,0.3641 z"
     fill="#ffffff"
     id="path31" />
  <path
     d="m 195.414,40.1176 c -1.297,0 -2.448,-0.3033 -3.451,-0.91 -0.986,-0.624 -1.765,-1.4735 -2.336,-2.5482 -0.571,-1.0921 -0.856,-2.3402 -0.856,-3.7443 0,-1.4214 0.303,-2.6696 0.908,-3.7444 0.623,-1.092 1.471,-1.9414 2.543,-2.5481 1.073,-0.6241 2.31,-0.9361 3.711,-0.9361 1.384,0 2.613,0.312 3.685,0.9361 1.073,0.6067 1.912,1.4561 2.517,2.5481 0.623,1.0748 0.935,2.323 0.935,3.7444 h -1.531 c 0,1.4041 -0.269,2.6522 -0.805,3.7443 -0.519,1.0748 -1.237,1.9242 -2.154,2.5482 -0.917,0.6067 -1.972,0.91 -3.166,0.91 z m 0.467,5.7986 c -1.228,0 -2.378,-0.2428 -3.451,-0.7282 -1.073,-0.4853 -1.981,-1.196 -2.725,-2.1321 -0.225,-0.2947 -0.311,-0.598 -0.259,-0.9101 0.069,-0.312 0.242,-0.5633 0.519,-0.754 0.311,-0.208 0.631,-0.2774 0.96,-0.2081 0.346,0.0694 0.623,0.2427 0.83,0.5201 0.467,0.5894 1.056,1.0488 1.765,1.3781 0.709,0.3294 1.514,0.494 2.413,0.494 0.831,0 1.592,-0.1993 2.284,-0.598 0.709,-0.3987 1.272,-0.9881 1.687,-1.7681 0.415,-0.7801 0.623,-1.7335 0.623,-2.8603 v -3.6923 l 0.856,-2.2882 1.687,0.5461 v 5.6164 c 0,1.3695 -0.303,2.6089 -0.909,3.7183 -0.605,1.1268 -1.453,2.0195 -2.543,2.6782 -1.072,0.6588 -2.318,0.9882 -3.737,0.9882 z m 0.052,-8.1387 c 0.9,0 1.696,-0.208 2.388,-0.6241 0.692,-0.416 1.228,-0.988 1.609,-1.7161 0.398,-0.728 0.597,-1.5688 0.597,-2.5222 0,-0.9534 -0.199,-1.7941 -0.597,-2.5222 -0.381,-0.7454 -0.917,-1.3261 -1.609,-1.7422 -0.692,-0.416 -1.488,-0.624 -2.388,-0.624 -0.899,0 -1.695,0.208 -2.387,0.624 -0.692,0.4161 -1.237,0.9968 -1.635,1.7422 -0.398,0.7281 -0.597,1.5688 -0.597,2.5222 0,0.9534 0.199,1.7942 0.597,2.5222 0.398,0.7281 0.943,1.3001 1.635,1.7161 0.692,0.4161 1.488,0.6241 2.387,0.6241 z"
     fill="#ffffff"
     id="path33" />
  <path
     d="m 208.902,46.2542 c -0.173,0 -0.381,-0.052 -0.623,-0.156 -0.761,-0.3467 -0.969,-0.8928 -0.623,-1.6381 l 7.915,-17.9155 c 0.346,-0.7281 0.891,-0.9361 1.635,-0.624 0.779,0.3293 0.995,0.8753 0.649,1.6381 l -7.941,17.8894 c -0.208,0.5374 -0.545,0.8061 -1.012,0.8061 z m 3.062,-6.8126 c -0.329,0.1387 -0.64,0.156 -0.934,0.052 -0.277,-0.1213 -0.502,-0.3467 -0.675,-0.6761 l -5.943,-11.3109 c -0.173,-0.3293 -0.199,-0.6413 -0.077,-0.936 0.138,-0.312 0.372,-0.5374 0.7,-0.6761 0.329,-0.1387 0.64,-0.1473 0.934,-0.026 0.295,0.104 0.519,0.3207 0.675,0.65 l 5.683,11.311 c 0.173,0.3293 0.234,0.65 0.182,0.9621 -0.035,0.2946 -0.216,0.5113 -0.545,0.65 z"
     fill="#ffffff"
     id="path35" />
  <path
     d="m 217.544,42.6659 c -0.381,0 -0.692,-0.1301 -0.934,-0.3901 -0.26,-0.26 -0.39,-0.5721 -0.39,-0.9361 0,-0.3813 0.13,-0.702 0.39,-0.9621 0.242,-0.2426 0.553,-0.364 0.934,-0.364 h 12.171 c 0.346,0 0.649,0.1214 0.908,0.364 0.26,0.2601 0.389,0.5808 0.389,0.9621 0,0.364 -0.129,0.6761 -0.389,0.9361 -0.259,0.26 -0.562,0.3901 -0.908,0.3901 z"
     fill="#ffffff"
     id="path37" />
</svg>
